#!OML:ASF I:\salsa\salsa 7_09\Patient 1\Session 1\dancerfemale.ASF
:FULLY-SPECIFIED
:DEGREES
2139
root 5.82133 16.0281 -5.37063 -2328.31 -248.373 184.974
lowerback 3.19967 -1.47835 -2.33072
upperback -9.72144 -1.98882 0.22797
thorax -12.1665 -0.631593 1.79896
lowerneck 4.92001 -7.88143 -9.93895
upperneck 7.16327 -11.4971 12.5033
head 2.61035 -5.75161 5.19871
rclavicle -6.33626e-014 -2.04748e-014
rhumerus -8.39033 -13.4695 -67.0933
rradius 83.1184
rwrist -61.4635
rhand -18.6916 406.057
rfingers 7.12502
rthumb 7.6028 376.214
lclavicle -6.33626e-014 -2.04748e-014
lhumerus -45.5327 4.12073 89.0169
lradius 113.11
lwrist 13.7214
lhand -28.7584 -309.496
lfingers 7.12502
lthumb -2.11842 -2079.53
rfemur -18.3704 10.3318 5.58366
rtibia 32.6069
rfoot -20.7237 -22.0456
rtoes -17.6653
lfemur -21.506 -6.17908 -18.9542
ltibia 36.857
lfoot -22.7916 -5.21959
ltoes -27.5308
2140
root 5.89689 15.9763 -5.65176 -2330.52 -244.998 182.88
lowerback 3.52445 -1.09291 -1.05757
upperback -9.43647 -1.36968 0.254431
thorax -12.0895 -0.466 1.03944
lowerneck 4.50399 -7.57252 -9.83265
upperneck 7.4911 -11.0687 12.3519
head 2.71084 -5.5224 5.13171
rclavicle -1.56543e-014 -9.14409e-015
rhumerus -10.1547 -13.48 -69.2876
rradius 83.9968
rwrist -61.758
rhand -18.8866 407.592
rfingers 7.12502
rthumb 7.41459 377.742
lclavicle -1.56543e-014 -9.14409e-015
lhumerus -45.3964 4.2119 88.9867
lradius 109.435
lwrist 9.81886
lhand -26.4102 -309.156
lfingers 7.12502
lthumb 0.149597 -2079.18
rfemur -19.687 7.61619 7.63766
rtibia 37.1361
rfoot -22.2493 -27.3337
rtoes -18.0455
lfemur -21.4842 -3.74422 -19.7044
ltibia 38.1556
lfoot -23.7492 -4.73031
ltoes -25.2333
2141
root 5.97776 15.9602 -5.92935 -2332.73 -241.577 180.747
lowerback 3.99089 -0.508276 0.569614
upperback -9.11323 -0.444037 0.216834
thorax -12.0399 -0.18536 -0.0350564
lowerneck 3.81781 -7.45245 -9.34575
upperneck 8.06061 -10.8633 11.8722
head 2.91725 -5.38672 4.87903
rclavicle -9.54166e-015 -5.36719e-015
rhumerus -11.9964 -14.2281 -71.252
rradius 85.2977
rwrist -61.7387
rhand -19.1046 409.159
rfingers 7.12502
rthumb 7.20419 379.302
lclavicle -9.54166e-015 -5.36719e-015
lhumerus -44.5894 3.85882 89.0932
lradius 105.612
lwrist 5.63394
lhand -23.7017 -308.592
lfingers 7.12502
lthumb 2.76547 -2078.63
rfemur -20.9318 3.78394 10.2207
rtibia 41.7322
rfoot -21.8138 -27.7674
rtoes -16.0706
lfemur -21.2734 -1.35059 -20.1373
ltibia 38.9918
lfoot -24.3561 -3.93457
ltoes -24.1935
2142
root 6.05995 15.9474 -6.19105 -2333.21 -238.102 180.716
lowerback 4.52931 0.108706 1.21107
upperback -8.70653 0.404907 -0.0888284
thorax -11.893 0.137646 -0.845698
lowerneck 3.25635 -7.34881 -8.84321
upperneck 8.47967 -10.6837 11.4545
head 3.06624 -5.2694 4.6505
rclavicle -1.49585e-014 -1.58034e-014
rhumerus -13.9593 -14.8684 -72.9674
rradius 86.9645
rwrist -61.4993
rhand -19.8527 410.133
rfingers 7.12502
rthumb 6.48199 380.252
lclavicle -1.49585e-014 -1.58034e-014
lhumerus -43.2881 3.39867 89.1686
lradius 101.886
lwrist 1.60689
lhand -20.5867 -307.869
lfingers 7.12502
lthumb 5.77343 -2077.97
rfemur -22.0472 0.511999 11.9799
rtibia 46.3908
rfoot -21.2846 -25.0868
rtoes -18.2878
lfemur -20.7451 1.08197 -21.4479
ltibia 39.3166
lfoot -24.7264 -3.16179
ltoes -23.7699
2143
root 6.14722 15.9276 -6.43413 -2331.18 -234.57 183.761
lowerback 5.04063 0.784307 -0.123767
upperback -8.35395 1.08194 -0.857863
thorax -11.7927 0.533386 -1.03199
lowerneck 2.96671 -7.26288 -8.5661
upperneck 8.70575 -10.5574 11.3317
head 3.14685 -5.18953 4.56022
rclavicle 3.80176e-015 4.77083e-015
rhumerus -16.541 -14.9003 -73.8773
rradius 88.8163
rwrist -61.9343
rhand -20.5187 410.836
rfingers 7.12502
rthumb 5.83905 380.937
lclavicle 3.80176e-015 4.77083e-015
lhumerus -41.7554 2.84012 89.3199
lradius 98.2451
lwrist -1.94601
lhand -17.8472 -307.351
lfingers 7.12502
lthumb 8.41779 -2077.54
rfemur -22.797 -2.33628 11.6607
rtibia 50.9491
rfoot -20.7512 -22.6875
rtoes -19.9778
lfemur -20.0609 3.1601 -24.6153
ltibia 39.2823
lfoot -25.0385 -2.24515
ltoes -23.5897
2144
root 6.2348 15.8776 -6.6635 -2328.97 -231.032 186.994
lowerback 5.26192 1.59059 -2.07278
upperback -8.04908 1.87534 -1.62277
thorax -11.6137 1.04094 -0.886999
lowerneck 2.79184 -7.27539 -8.77569
upperneck 8.69942 -10.5887 11.567
head 3.1997 -5.20124 4.65665
rclavicle 1.33807e-014 4.27387e-015
rhumerus -19.3745 -14.4851 -74.0723
rradius 90.9513
rwrist -63.7999
rhand -21.0527 411.79
rfingers 7.12502
rthumb 5.32348 381.877
lclavicle 1.33807e-014 4.27387e-015
lhumerus -39.7981 2.28018 89.9134
lradius 94.4882
lwrist -5.05324
lhand -15.5972 -307.242
lfingers 7.12502
lthumb 10.5887 -2077.53
rfemur -23.5122 -5.28341 10.8661
rtibia 55.241
rfoot -19.639 -20.2919
rtoes -20.1162
lfemur -19.8003 5.11039 -28.1343
ltibia 39.3243
lfoot -25.4132 -1.47003
ltoes -23.296
2145
root 6.32541 15.8125 -6.88357 -2328.57 -227.706 187.909
lowerback 5.277 2.51861 -2.81047
upperback -7.75526 3.01752 -1.94484
thorax -11.3224 1.63264 -0.985986
lowerneck 2.94344 -7.44279 -9.21223
upperneck 8.13872 -10.8224 11.983
head 3.07804 -5.33647 4.85423
rclavicle -6.12257e-014 -1.63997e-014
rhumerus -22.0855 -14.4757 -73.5496
rradius 92.8932
rwrist -64.2691
rhand -21.9679 412.379
rfingers 7.12502
rthumb 4.43973 382.445
lclavicle -6.12257e-014 -1.63997e-014
lhumerus -37.4526 1.79638 90.876
lradius 90.6161
lwrist -7.73596
lhand -13.2208 -307.784
lfingers 7.12502
lthumb 12.8804 -2078.2
rfemur -23.8269 -8.09949 11.4996
rtibia 58.8525
rfoot -17.8902 -18.4372
rtoes -22.9687
lfemur -19.9624 7.14838 -30.1463
ltibia 39.6205
lfoot -25.7988 -1.07747
ltoes -22.7071
2146
root 6.42705 15.7423 -7.09733 -2329.32 -224.599 187.542
lowerback 5.27373 3.46736 -2.32106
upperback -7.36005 4.32501 -2.20526
thorax -10.8259 2.20669 -1.70808
lowerneck 3.05466 -7.69834 -9.68089
upperneck 7.66392 -11.1962 12.6346
head 3.02141 -5.53248 5.11954
rclavicle -5.53491e-015 -1.26228e-014
rhumerus -24.6897 -14.793 -72.8296
rradius 94.5016
rwrist -64.5715
rhand -21.7654 412.73
rfingers 7.12502
rthumb 4.63532 382.8
lclavicle -5.53491e-015 -1.26228e-014
lhumerus -34.8686 1.32949 91.6485
lradius 86.8088
lwrist -9.71136
lhand -11.708 -308.566
lfingers 7.12502
lthumb 14.3384 -2079.08
rfemur -23.3081 -10.6333 12.8998
rtibia 61.6264
rfoot -16.904 -15.1478
rtoes -24.746
lfemur -20.1149 8.8931 -31.1078
ltibia 40.1834
lfoot -26.2309 -0.790758
ltoes -22.2525
2147
root 6.54342 15.6883 -7.30066 -2330.18 -221.551 187.166
lowerback 5.07353 4.33835 -1.07875
upperback -6.74966 5.57528 -2.85457
thorax -9.82474 2.69938 -3.19292
lowerneck 2.9438 -7.9965 -9.75477
upperneck 7.17535 -11.6082 13.3498
head 2.98753 -5.72806 5.32969
rclavicle -2.08351e-014 5.51627e-015
rhumerus -26.8892 -15.07 -72.8507
rradius 96.0592
rwrist -64.8503
rhand -21.3943 413.305
rfingers 7.12502
rthumb 4.9936 383.384
lclavicle -2.08351e-014 5.51627e-015
lhumerus -31.9816 0.863844 91.8116
lradius 83.228
lwrist -10.9808
lhand -11.7195 -309.124
lfingers 7.12502
lthumb 14.3273 -2079.64
rfemur -22.0561 -13.1346 14.0159
rtibia 63.4559
rfoot -15.9986 -11.6901
rtoes -27.6216
lfemur -19.997 10.1369 -31.9488
ltibia 40.629
lfoot -26.7231 -0.227991
ltoes -22.44
